<mxfile host="Electron" modified="2024-07-30T02:34:51.633Z" agent="Mozilla/5.0 (Windows NT 10.0; Win64; x64) AppleWebKit/537.36 (KHTML, like Gecko) draw.io/22.0.2 Chrome/114.0.5735.289 Electron/25.8.4 Safari/537.36" etag="z3IWUnh2gOCx5K1qmjNK" version="22.0.2" type="device">
  <diagram name="ページ1" id="NKPZZOQx5-XQ6p6UbQd2">
    <mxGraphModel dx="864" dy="556" grid="1" gridSize="10" guides="1" tooltips="1" connect="1" arrows="1" fold="1" page="1" pageScale="1" pageWidth="827" pageHeight="1169" math="0" shadow="0">
      <root>
        <mxCell id="0" />
        <mxCell id="1" parent="0" />
        <mxCell id="0mSqBatTHCEcBpTO_uF6-18" value="lesson6-2" style="rounded=0;whiteSpace=wrap;html=1;" parent="1" vertex="1">
          <mxGeometry x="10" y="240" width="120" height="60" as="geometry" />
        </mxCell>
        <mxCell id="WEAwo-k1oHyP5qAWzPNk-2" value="利用者" style="rounded=0;whiteSpace=wrap;html=1;" parent="1" vertex="1">
          <mxGeometry x="80" y="360" width="230" height="40" as="geometry" />
        </mxCell>
        <mxCell id="WEAwo-k1oHyP5qAWzPNk-3" value="ATM" style="rounded=0;whiteSpace=wrap;html=1;" parent="1" vertex="1">
          <mxGeometry x="310" y="360" width="370" height="40" as="geometry" />
        </mxCell>
        <mxCell id="WEAwo-k1oHyP5qAWzPNk-4" value="" style="rounded=0;whiteSpace=wrap;html=1;" parent="1" vertex="1">
          <mxGeometry x="80" y="400" width="230" height="750" as="geometry" />
        </mxCell>
        <mxCell id="WEAwo-k1oHyP5qAWzPNk-5" value="" style="rounded=0;whiteSpace=wrap;html=1;" parent="1" vertex="1">
          <mxGeometry x="310" y="400" width="370" height="750" as="geometry" />
        </mxCell>
        <mxCell id="WEAwo-k1oHyP5qAWzPNk-6" value="" style="ellipse;whiteSpace=wrap;html=1;aspect=fixed;fillColor=#000000;" parent="1" vertex="1">
          <mxGeometry x="180" y="420" width="30" height="30" as="geometry" />
        </mxCell>
        <mxCell id="WEAwo-k1oHyP5qAWzPNk-7" value="" style="ellipse;whiteSpace=wrap;html=1;aspect=fixed;" parent="1" vertex="1">
          <mxGeometry x="180" y="1090" width="40" height="40" as="geometry" />
        </mxCell>
        <mxCell id="WEAwo-k1oHyP5qAWzPNk-8" value="" style="ellipse;whiteSpace=wrap;html=1;aspect=fixed;fillColor=#000000;" parent="1" vertex="1">
          <mxGeometry x="185" y="1095" width="30" height="30" as="geometry" />
        </mxCell>
        <mxCell id="WEAwo-k1oHyP5qAWzPNk-9" value="カードを挿入する" style="rounded=1;whiteSpace=wrap;html=1;" parent="1" vertex="1">
          <mxGeometry x="155" y="470" width="80" height="40" as="geometry" />
        </mxCell>
        <mxCell id="WEAwo-k1oHyP5qAWzPNk-10" value="暗証番号を入力する" style="rounded=1;whiteSpace=wrap;html=1;" parent="1" vertex="1">
          <mxGeometry x="160" y="584" width="70" height="40" as="geometry" />
        </mxCell>
        <mxCell id="WEAwo-k1oHyP5qAWzPNk-11" value="引き出し金額を入力する" style="rounded=1;whiteSpace=wrap;html=1;" parent="1" vertex="1">
          <mxGeometry x="155" y="700" width="80" height="40" as="geometry" />
        </mxCell>
        <mxCell id="WEAwo-k1oHyP5qAWzPNk-12" value="現金、カードおよび伝票を取り出す" style="rounded=1;whiteSpace=wrap;html=1;" parent="1" vertex="1">
          <mxGeometry x="122.5" y="1020" width="155" height="40" as="geometry" />
        </mxCell>
        <mxCell id="WEAwo-k1oHyP5qAWzPNk-13" value="" style="rhombus;whiteSpace=wrap;html=1;" parent="1" vertex="1">
          <mxGeometry x="177.5" y="530" width="35" height="30" as="geometry" />
        </mxCell>
        <mxCell id="WEAwo-k1oHyP5qAWzPNk-14" value="暗証番号を確認する" style="rounded=1;whiteSpace=wrap;html=1;" parent="1" vertex="1">
          <mxGeometry x="379" y="584" width="70" height="40" as="geometry" />
        </mxCell>
        <mxCell id="WEAwo-k1oHyP5qAWzPNk-15" value="エラーメッセージを表示する" style="rounded=1;whiteSpace=wrap;html=1;" parent="1" vertex="1">
          <mxGeometry x="520" y="645" width="120" height="40" as="geometry" />
        </mxCell>
        <mxCell id="WEAwo-k1oHyP5qAWzPNk-16" value="" style="rhombus;whiteSpace=wrap;html=1;" parent="1" vertex="1">
          <mxGeometry x="396" y="650" width="35" height="30" as="geometry" />
        </mxCell>
        <mxCell id="WEAwo-k1oHyP5qAWzPNk-17" value="入力金額が口座にあるか確認" style="rounded=1;whiteSpace=wrap;html=1;" parent="1" vertex="1">
          <mxGeometry x="529.5" y="700" width="101" height="40" as="geometry" />
        </mxCell>
        <mxCell id="WEAwo-k1oHyP5qAWzPNk-18" value="口座から引き落とす" style="rounded=1;whiteSpace=wrap;html=1;" parent="1" vertex="1">
          <mxGeometry x="545" y="820" width="70" height="40" as="geometry" />
        </mxCell>
        <mxCell id="WEAwo-k1oHyP5qAWzPNk-21" value="" style="endArrow=classic;html=1;rounded=0;exitX=1;exitY=0.5;exitDx=0;exitDy=0;entryX=0;entryY=0.5;entryDx=0;entryDy=0;" parent="1" source="WEAwo-k1oHyP5qAWzPNk-11" target="WEAwo-k1oHyP5qAWzPNk-17" edge="1">
          <mxGeometry width="50" height="50" relative="1" as="geometry">
            <mxPoint x="360" y="650" as="sourcePoint" />
            <mxPoint x="410" y="600" as="targetPoint" />
          </mxGeometry>
        </mxCell>
        <mxCell id="WEAwo-k1oHyP5qAWzPNk-22" value="" style="rhombus;whiteSpace=wrap;html=1;" parent="1" vertex="1">
          <mxGeometry x="562.5" y="760" width="35" height="30" as="geometry" />
        </mxCell>
        <mxCell id="WEAwo-k1oHyP5qAWzPNk-23" value="" style="endArrow=classic;html=1;rounded=0;exitX=0.5;exitY=1;exitDx=0;exitDy=0;entryX=0.5;entryY=0;entryDx=0;entryDy=0;" parent="1" source="WEAwo-k1oHyP5qAWzPNk-17" target="WEAwo-k1oHyP5qAWzPNk-22" edge="1">
          <mxGeometry width="50" height="50" relative="1" as="geometry">
            <mxPoint x="350" y="680" as="sourcePoint" />
            <mxPoint x="400" y="630" as="targetPoint" />
          </mxGeometry>
        </mxCell>
        <mxCell id="WEAwo-k1oHyP5qAWzPNk-24" value="【OK】" style="text;html=1;align=center;verticalAlign=middle;resizable=0;points=[];autosize=1;strokeColor=none;fillColor=none;" parent="1" vertex="1">
          <mxGeometry x="570.5" y="780" width="60" height="30" as="geometry" />
        </mxCell>
        <mxCell id="WEAwo-k1oHyP5qAWzPNk-26" value="【NG】" style="text;html=1;align=center;verticalAlign=middle;resizable=0;points=[];autosize=1;strokeColor=none;fillColor=none;" parent="1" vertex="1">
          <mxGeometry x="510" y="750" width="70" height="30" as="geometry" />
        </mxCell>
        <mxCell id="WEAwo-k1oHyP5qAWzPNk-27" value="" style="endArrow=classic;html=1;rounded=0;exitX=0;exitY=0.5;exitDx=0;exitDy=0;entryX=1;entryY=0.5;entryDx=0;entryDy=0;" parent="1" source="WEAwo-k1oHyP5qAWzPNk-22" target="WEAwo-k1oHyP5qAWzPNk-29" edge="1">
          <mxGeometry width="50" height="50" relative="1" as="geometry">
            <mxPoint x="350" y="720" as="sourcePoint" />
            <mxPoint x="400" y="670" as="targetPoint" />
          </mxGeometry>
        </mxCell>
        <mxCell id="WEAwo-k1oHyP5qAWzPNk-29" value="残高不足と表示" style="rounded=1;whiteSpace=wrap;html=1;" parent="1" vertex="1">
          <mxGeometry x="368.5" y="755" width="91" height="40" as="geometry" />
        </mxCell>
        <mxCell id="WEAwo-k1oHyP5qAWzPNk-30" value="" style="endArrow=classic;html=1;rounded=0;exitX=0;exitY=0.5;exitDx=0;exitDy=0;entryX=0.5;entryY=1;entryDx=0;entryDy=0;" parent="1" target="WEAwo-k1oHyP5qAWzPNk-11" edge="1">
          <mxGeometry width="50" height="50" relative="1" as="geometry">
            <mxPoint x="368.5" y="774.6" as="sourcePoint" />
            <mxPoint x="212.5" y="775" as="targetPoint" />
            <Array as="points">
              <mxPoint x="195" y="775" />
            </Array>
          </mxGeometry>
        </mxCell>
        <mxCell id="WEAwo-k1oHyP5qAWzPNk-31" value="" style="endArrow=classic;html=1;rounded=0;entryX=0.5;entryY=0;entryDx=0;entryDy=0;" parent="1" target="WEAwo-k1oHyP5qAWzPNk-18" edge="1">
          <mxGeometry width="50" height="50" relative="1" as="geometry">
            <mxPoint x="580" y="790" as="sourcePoint" />
            <mxPoint x="450" y="750" as="targetPoint" />
          </mxGeometry>
        </mxCell>
        <mxCell id="WEAwo-k1oHyP5qAWzPNk-33" value="伝票を用意する" style="rounded=1;whiteSpace=wrap;html=1;" parent="1" vertex="1">
          <mxGeometry x="532.5" y="1020" width="95" height="40" as="geometry" />
        </mxCell>
        <mxCell id="WEAwo-k1oHyP5qAWzPNk-35" value="" style="endArrow=classic;html=1;rounded=0;exitX=0.5;exitY=1;exitDx=0;exitDy=0;entryX=0.5;entryY=0;entryDx=0;entryDy=0;" parent="1" source="WEAwo-k1oHyP5qAWzPNk-51" target="WEAwo-k1oHyP5qAWzPNk-33" edge="1">
          <mxGeometry width="50" height="50" relative="1" as="geometry">
            <mxPoint x="450" y="850" as="sourcePoint" />
            <mxPoint x="500" y="800" as="targetPoint" />
          </mxGeometry>
        </mxCell>
        <mxCell id="WEAwo-k1oHyP5qAWzPNk-37" value="" style="endArrow=classic;html=1;rounded=0;exitX=0;exitY=0.5;exitDx=0;exitDy=0;entryX=1;entryY=0.5;entryDx=0;entryDy=0;" parent="1" source="WEAwo-k1oHyP5qAWzPNk-33" target="WEAwo-k1oHyP5qAWzPNk-12" edge="1">
          <mxGeometry width="50" height="50" relative="1" as="geometry">
            <mxPoint x="450" y="850" as="sourcePoint" />
            <mxPoint x="500" y="800" as="targetPoint" />
          </mxGeometry>
        </mxCell>
        <mxCell id="WEAwo-k1oHyP5qAWzPNk-39" value="" style="endArrow=classic;html=1;rounded=0;exitX=0.5;exitY=1;exitDx=0;exitDy=0;entryX=0.5;entryY=0;entryDx=0;entryDy=0;" parent="1" source="WEAwo-k1oHyP5qAWzPNk-9" target="WEAwo-k1oHyP5qAWzPNk-13" edge="1">
          <mxGeometry width="50" height="50" relative="1" as="geometry">
            <mxPoint x="450" y="670" as="sourcePoint" />
            <mxPoint x="500" y="620" as="targetPoint" />
          </mxGeometry>
        </mxCell>
        <mxCell id="WEAwo-k1oHyP5qAWzPNk-40" value="" style="endArrow=classic;html=1;rounded=0;exitX=0.5;exitY=1;exitDx=0;exitDy=0;entryX=0.5;entryY=0;entryDx=0;entryDy=0;" parent="1" target="WEAwo-k1oHyP5qAWzPNk-10" edge="1">
          <mxGeometry width="50" height="50" relative="1" as="geometry">
            <mxPoint x="194.8" y="560" as="sourcePoint" />
            <mxPoint x="194.8" y="580" as="targetPoint" />
          </mxGeometry>
        </mxCell>
        <mxCell id="WEAwo-k1oHyP5qAWzPNk-42" value="" style="endArrow=classic;html=1;rounded=0;exitX=1;exitY=0.5;exitDx=0;exitDy=0;entryX=0;entryY=0.5;entryDx=0;entryDy=0;" parent="1" source="WEAwo-k1oHyP5qAWzPNk-10" target="WEAwo-k1oHyP5qAWzPNk-14" edge="1">
          <mxGeometry width="50" height="50" relative="1" as="geometry">
            <mxPoint x="410" y="620" as="sourcePoint" />
            <mxPoint x="460" y="570" as="targetPoint" />
          </mxGeometry>
        </mxCell>
        <mxCell id="WEAwo-k1oHyP5qAWzPNk-43" value="" style="endArrow=classic;html=1;rounded=0;exitX=0.5;exitY=1;exitDx=0;exitDy=0;entryX=0.5;entryY=0;entryDx=0;entryDy=0;" parent="1" source="WEAwo-k1oHyP5qAWzPNk-14" target="WEAwo-k1oHyP5qAWzPNk-16" edge="1">
          <mxGeometry width="50" height="50" relative="1" as="geometry">
            <mxPoint x="410" y="620" as="sourcePoint" />
            <mxPoint x="460" y="570" as="targetPoint" />
          </mxGeometry>
        </mxCell>
        <mxCell id="WEAwo-k1oHyP5qAWzPNk-44" value="" style="endArrow=classic;html=1;rounded=0;exitX=1;exitY=0.5;exitDx=0;exitDy=0;entryX=0;entryY=0.5;entryDx=0;entryDy=0;" parent="1" source="WEAwo-k1oHyP5qAWzPNk-16" target="WEAwo-k1oHyP5qAWzPNk-15" edge="1">
          <mxGeometry width="50" height="50" relative="1" as="geometry">
            <mxPoint x="410" y="620" as="sourcePoint" />
            <mxPoint x="460" y="570" as="targetPoint" />
          </mxGeometry>
        </mxCell>
        <mxCell id="WEAwo-k1oHyP5qAWzPNk-45" value="" style="endArrow=classic;html=1;rounded=0;exitX=0;exitY=0.5;exitDx=0;exitDy=0;entryX=0.5;entryY=0;entryDx=0;entryDy=0;" parent="1" source="WEAwo-k1oHyP5qAWzPNk-16" target="WEAwo-k1oHyP5qAWzPNk-11" edge="1">
          <mxGeometry width="50" height="50" relative="1" as="geometry">
            <mxPoint x="410" y="620" as="sourcePoint" />
            <mxPoint x="460" y="570" as="targetPoint" />
            <Array as="points">
              <mxPoint x="195" y="665" />
            </Array>
          </mxGeometry>
        </mxCell>
        <mxCell id="WEAwo-k1oHyP5qAWzPNk-46" value="" style="endArrow=classic;html=1;rounded=0;exitX=0.5;exitY=0;exitDx=0;exitDy=0;entryX=1;entryY=0.5;entryDx=0;entryDy=0;" parent="1" source="WEAwo-k1oHyP5qAWzPNk-15" target="WEAwo-k1oHyP5qAWzPNk-13" edge="1">
          <mxGeometry width="50" height="50" relative="1" as="geometry">
            <mxPoint x="400" y="650" as="sourcePoint" />
            <mxPoint x="450" y="600" as="targetPoint" />
            <Array as="points">
              <mxPoint x="580" y="545" />
            </Array>
          </mxGeometry>
        </mxCell>
        <mxCell id="WEAwo-k1oHyP5qAWzPNk-47" value="【NG】" style="text;html=1;align=center;verticalAlign=middle;resizable=0;points=[];autosize=1;strokeColor=none;fillColor=none;" parent="1" vertex="1">
          <mxGeometry x="420" y="640" width="70" height="30" as="geometry" />
        </mxCell>
        <mxCell id="WEAwo-k1oHyP5qAWzPNk-48" value="【OK】" style="text;html=1;align=center;verticalAlign=middle;resizable=0;points=[];autosize=1;strokeColor=none;fillColor=none;" parent="1" vertex="1">
          <mxGeometry x="336" y="640" width="60" height="30" as="geometry" />
        </mxCell>
        <mxCell id="WEAwo-k1oHyP5qAWzPNk-49" value="" style="endArrow=classic;html=1;rounded=0;exitX=0.5;exitY=1;exitDx=0;exitDy=0;entryX=0.5;entryY=0;entryDx=0;entryDy=0;" parent="1" source="WEAwo-k1oHyP5qAWzPNk-6" target="WEAwo-k1oHyP5qAWzPNk-9" edge="1">
          <mxGeometry width="50" height="50" relative="1" as="geometry">
            <mxPoint x="205" y="520" as="sourcePoint" />
            <mxPoint x="205" y="540" as="targetPoint" />
          </mxGeometry>
        </mxCell>
        <mxCell id="WEAwo-k1oHyP5qAWzPNk-52" value="" style="endArrow=classic;html=1;rounded=0;exitX=0.5;exitY=1;exitDx=0;exitDy=0;entryX=0.5;entryY=0;entryDx=0;entryDy=0;" parent="1" source="WEAwo-k1oHyP5qAWzPNk-18" target="WEAwo-k1oHyP5qAWzPNk-51" edge="1">
          <mxGeometry width="50" height="50" relative="1" as="geometry">
            <mxPoint x="580" y="860" as="sourcePoint" />
            <mxPoint x="580" y="1020" as="targetPoint" />
          </mxGeometry>
        </mxCell>
        <mxCell id="WEAwo-k1oHyP5qAWzPNk-51" value="現金を用意する" style="rounded=1;whiteSpace=wrap;html=1;" parent="1" vertex="1">
          <mxGeometry x="532.5" y="920" width="95" height="40" as="geometry" />
        </mxCell>
        <mxCell id="WEAwo-k1oHyP5qAWzPNk-53" value="" style="endArrow=classic;html=1;rounded=0;exitX=0.5;exitY=1;exitDx=0;exitDy=0;entryX=0.5;entryY=0;entryDx=0;entryDy=0;" parent="1" source="WEAwo-k1oHyP5qAWzPNk-12" target="WEAwo-k1oHyP5qAWzPNk-7" edge="1">
          <mxGeometry width="50" height="50" relative="1" as="geometry">
            <mxPoint x="360" y="950" as="sourcePoint" />
            <mxPoint x="410" y="900" as="targetPoint" />
          </mxGeometry>
        </mxCell>
      </root>
    </mxGraphModel>
  </diagram>
</mxfile>
